<svg xmlns="http://www.w3.org/2000/svg" viewBox="0 0 128 128" role="img" aria-label="PocketPig">
  <defs>
    <radialGradient id="bg" cx="50%" cy="35%" r="70%">
      <stop offset="0%" stop-color="#FFC43D"/>
      <stop offset="55%" stop-color="#FF8A1F"/>
      <stop offset="100%" stop-color="#E45A00"/>
    </radialGradient>
    <linearGradient id="face" x1="0%" x2="100%" y1="0%" y2="100%">
      <stop offset="0%" stop-color="#FFE3C5"/>
      <stop offset="100%" stop-color="#FFC89B"/>
    </linearGradient>
  </defs>

  <circle cx="64" cy="64" r="58" fill="#111827"/>
  <ellipse cx="64" cy="70" rx="36" ry="28" fill="url(#bg)"/>
  <circle cx="45" cy="38" r="14" fill="#FF9B2E"/>
  <circle cx="83" cy="38" r="14" fill="#FF9B2E"/>
  <circle cx="45" cy="38" r="8" fill="#FFD7AE"/>
  <circle cx="83" cy="38" r="8" fill="#FFD7AE"/>
  <circle cx="64" cy="52" r="24" fill="url(#bg)"/>
  <ellipse cx="64" cy="63" rx="17" ry="13" fill="url(#face)"/>
  <ellipse cx="58" cy="63" rx="3" ry="5" fill="#F59AA0"/>
  <ellipse cx="70" cy="63" rx="3" ry="5" fill="#F59AA0"/>
  <circle cx="54" cy="48" r="5" fill="#1F2937"/>
  <circle cx="74" cy="48" r="5" fill="#1F2937"/>
  <circle cx="52.5" cy="46.5" r="1.4" fill="#fff"/>
  <circle cx="72.5" cy="46.5" r="1.4" fill="#fff"/>
  <path d="M56 70c3 3 13 3 16 0" fill="none" stroke="#C96B4E" stroke-linecap="round" stroke-width="2.5"/>
  <path d="M88 73c7 1 11 9 4 12" fill="none" stroke="#D96E1F" stroke-linecap="round" stroke-width="4"/>
  <rect x="54" y="28" width="20" height="6" rx="3" fill="#3F2A21"/>
</svg>
